<?xml version="1.0" encoding="UTF-8"?>
<svg id="uuid-75c8f0e8-d95d-4bb3-ae30-a3d55bb880ac" data-name="Layer 2" xmlns="http://www.w3.org/2000/svg" xmlns:xlink="http://www.w3.org/1999/xlink" viewBox="0 0 326 244">
  <defs>
    <radialGradient id="uuid-e80ec74b-753a-4fe1-895a-88555a268588" cx="162.56" cy="122.15" fx="162.56" fy="122.15" r="173.24" gradientTransform="translate(0 -39.98) scale(1 1.33)" gradientUnits="userSpaceOnUse">
      <stop offset="0" stop-color="#fff"/>
      <stop offset="1" stop-color="#f9f9f9"/>
    </radialGradient>
  </defs>
  <rect y="30" width="326" height="183" fill="#f9f9f9"/>
  <rect x="-.44" width="326" height="244" fill="url(#uuid-e80ec74b-753a-4fe1-895a-88555a268588)"/>
  <g id="uuid-ec9b2649-6579-4c84-b0a5-ec28bae2fd3a" data-name="Layer 2" opacity=".09">
    <g id="uuid-ee1213e5-2e31-422f-86ae-08914ab5b876" data-name="Layer 1-2">
      <path d="M81.04,164c-1.72,0-3.36-.61-4.66-1.75-.52-.45-.97-.97-1.33-1.55-1.17,1.03-2.7,1.63-4.27,1.67-.02,0-.04,0-.06,0-3.77,0-6.77-3-6.77-6.69s6-14.1,6.25-14.55c.09-.16.25-.25.43-.25h0c.18,0,.35.1.43.25.04.06,3.42,6.01,5.17,10.48,2.63-2.41,6.72-2.52,9.48-.12,2.96,2.58,3.28,7.09.71,10.05-1.25,1.44-2.98,2.3-4.88,2.43-.17.01-.34.02-.51.02ZM75.77,159.96c.34.58.76,1.09,1.27,1.54,2.55,2.21,6.42,1.94,8.64-.61,2.21-2.55,1.94-6.43-.61-8.64-2.47-2.15-6.2-1.96-8.45.39.47,1.33.7,2.32.7,3.04,0,1.58-.55,3.08-1.56,4.28ZM70.64,142.41c-1.4,2.54-5.69,10.55-5.69,13.28,0,3.14,2.55,5.69,5.69,5.69,0,0,.02,0,.02,0,.02,0,.03,0,.05,0,1.52-.02,2.99-.66,4.04-1.77.01-.02.03-.04.05-.06.99-1.05,1.53-2.42,1.53-3.87,0-.64-.25-1.64-.74-2.97,0,0,0-.01,0-.02-1.29-3.53-3.91-8.41-4.95-10.28ZM71.22,156.81l.09.07,1.73-2.16-.78-.62-1.04,1.3v-3h-1v5.59l-2.55-2.55-.71.71,3.26,3.26v1.96h1s0-4.55,0-4.55ZM273.83,171.65v-11.58c-1.59-.11-3.16-.76-4.41-1.94-1.38-1.31-2.17-3.08-2.22-4.98s.64-3.71,1.95-5.09,3.08-2.17,4.98-2.22c1.67-.06,3.27.48,4.57,1.5,1.81-4.02,4.25-8.33,4.28-8.37.18-.31.69-.31.87,0,.26.45,6.25,11.04,6.25,14.55,0,3.49-2.68,6.37-6.11,6.67v11.48s-1,0-1,0v-11.46c-1.53-.1-2.98-.72-4.11-1.75-1.18.99-2.61,1.53-4.06,1.64v11.58h-1.01ZM279.3,157.44c.97,1.02,2.3,1.64,3.69,1.75v-1.96l-3.26-3.26c-.2-.2-.2-.51,0-.71s.51-.2.71,0l2.56,2.56v-5.59c0-.28.22-.5.5-.5s.5.22.5.5v3l1.04-1.3c.17-.22.49-.25.7-.08.22.17.25.49.08.7l-1.72,2.16s-.06.07-.09.09v4.38c2.87-.29,5.11-2.72,5.11-5.66,0-2.73-4.29-10.74-5.69-13.28-.83,1.51-2.7,4.98-4.06,8.11,0,0,0,.01,0,.02-1.33,3.06-1.61,4.49-1.61,5.15,0,1.43.53,2.8,1.5,3.85.02.01.03.03.05.04.01.01.02.02.03.04ZM274.33,146.83c-.06,0-.11,0-.17,0-1.64.04-3.16.72-4.28,1.91-1.13,1.19-1.72,2.74-1.68,4.38.04,1.64.72,3.16,1.91,4.28,1.06,1,2.38,1.56,3.73,1.66v-1.15l-2.75-2.81c-.19-.2-.19-.51,0-.71.2-.19.51-.19.71,0l2.03,2.08v-1.08c-.02-.09-.02-.18,0-.26v-3.91c0-.28.22-.5.5-.5s.5.22.5.5v2.82l1.29-1.29c.18-.18.48-.19.67-.03.18-1.06.67-2.55,1.49-4.45-1.11-.94-2.5-1.45-3.95-1.45ZM274.84,155.47v3.6c1.2-.1,2.38-.55,3.37-1.36-.95-1.17-1.47-2.61-1.48-4.12l-1.89,1.89ZM155.75,172.15c-.35.03-.68.03-.94.03v-.03M75.6,171.68c-.31-.49-.4-1.07-.27-1.63.23-.98,1.08-1.65,2.04-1.67.11-.41.33-.77.65-1.06.42-.37.97-.56,1.53-.52.96.06,1.74.77,1.93,1.67.68.03,1.3.44,1.6,1.04.04,0,.08,0,.12,0,.88.05,1.55.8,1.5,1.68,0,.17-.05.34-.11.5l-8.99-.02ZM83.06,171.69c.2,0,.34-.04.45-.15.12-.11.19-.25.2-.41.02-.32-.23-.6-.55-.62-.08.02-.17.01-.25.04-.13.04-.28.03-.41-.04-.12-.07-.21-.19-.24-.33-.1-.48-.56-.79-1.04-.69-.15.03-.36,0-.47-.1-.12-.1-.23-.24-.22-.4.04-.61-.43-1.15-1.04-1.19-.3-.03-.58.08-.81.27-.22.2-.36.47-.38.77,0,.15-.07.34-.19.43-.12.1-.28.17-.42.14-.62-.15-1.25.25-1.39.87-.07.3-.02.61.15.87.16.26.42.45.72.51.08.02.17.03.26.03h5.62ZM83.06,170.03h0,0ZM44.63,171.65v-48.54c0-.28.22-.5.5-.5h16.63c.28,0,.5.22.5.5v41.93l-.55-.12h-.45v-38.51h-15.63v44.91h9.74c.11,0,.1.33.1.33h-10.84ZM45.63,125.41h15.63v-1.8h-15.63v1.8ZM70.72,167.76c-.28,0-.5-.22-.5-.5v-5.39c0-.28.22-.5.5-.5s.5.22.5.5v5.39c0,.28-.22.5-.5.5ZM57.87,134.43h-8.71c-.28,0-.5-.22-.5-.5s.22-.5.5-.5h8.71c.28,0,.5.22.5.5s-.22.5-.5.5ZM57.12,171.34c-.81-.19-1.16-.56-1.16-1.25,0-.37.14-.71.4-.97.26-.26.6-.4.97-.4h0c.15,0,.29-.1.38-.21s.13-.3.09-.45c-.06-.28,0-.56.15-.8.16-.24.39-.4.6-.45.36-.03.71.02,1.05.14.24.08.51-.03.61-.27.25-.56.85-.87,1.45-.75,0,0,0,0,0,0h0c.64.11,1.11.67,1.11,1.32,0,.2.14.37.32.45.18.08.42.02.56-.12.29-.29.71-.39,1.1-.27.14.04.3.02.43-.07s.21-.22.22-.38c.09-1.22,1.17-2.16,2.38-2.06,1.17.08,2.08,1.07,2.07,2.24v.22c0,.14.06.27.16.36.1.09.24.15.37.13.06,0,.13,0,.22,0h.13c.28,0,.5-.22.5-.5,0-.24-.16-.43-.38-.49-.12-1.58-1.38-2.86-2.99-2.98-1.62-.11-3,.95-3.37,2.45-.3,0-.59.05-.86.17-.28-.75-.95-1.33-1.78-1.48-.91-.17-1.81.21-2.33.94-.34-.07-.7-.09-1.1-.07-.54.11-1,.43-1.3.89-.21.32-.32.67-.33,1.07-.43.1-.82.31-1.14.63-.45.45-.7,1.04-.7,1.68,0,.81.34,1.85,1.94,2.23.04,0,.5-.91.23-.97ZM58.63,172.47s.06,0,.09-.01c.08,0,.16.01.25.01h11.07c.23,0,.46-.04.69-.11,1.5-.03,2.72-1.24,2.75-2.75.02-1.54-1.21-2.82-2.75-2.84-.29,0-.5.22-.51.49s.22.5.49.51c.99.02,1.79.83,1.77,1.83-.01.98-.82,1.77-1.8,1.77h-.03c-.06,0-.13,0-.19.03-.14.05-.28.08-.42.08h-11.07c-.09,0-.17,0-.25-.03-.09-.02-.18,0-.26.03-.43-.01-.92-.04-1.37-.13-.26-.06-.53.12-.59.39-.05.27.12.53.39.59.5.1,1.02.15,1.53.15.07,0,.14,0,.21,0ZM58.37,142.63c0-.28-.22-.5-.5-.5h-8.71c-.28,0-.5.22-.5.5s.22.5.5.5h8.71c.28,0,.5-.22.5-.5ZM58.37,151.1c0-.28-.22-.5-.5-.5h-8.71c-.28,0-.5.22-.5.5s.22.5.5.5h8.71c.28,0,.5-.22.5-.5ZM58.37,159.58c0-.28-.22-.5-.5-.5h-8.71c-.28,0-.5.22-.5.5s.22.5.5.5h8.71c.28,0,.5-.22.5-.5ZM233.33,171.6v-28.34c0-.28.22-.5.5-.5h9.37v-10.73c0-.28.22-.5.5-.5h15.46c.28,0,.5.22.5.5v39.68l-26.33-.11ZM244.2,171.43h14.46v-38.9h-14.46v38.9ZM234.33,171.33h8.76v-25.93h-8.76v25.93ZM234.33,144.4h8.76v-.64h-8.76v.64ZM257.27,167.04h-11.77c-.28,0-.5-.22-.5-.5v-2.98c0-.28.22-.5.5-.5h11.77c.28,0,.5.22.5.5v2.98c0,.28-.22.5-.5.5ZM246,166.04h10.77v-1.98h-10.77v1.98ZM241.3,165.15h-5.11c-.28,0-.5-.22-.5-.5s.22-.5.5-.5h5.11c.28,0,.5.22.5.5s-.22.5-.5.5ZM241.3,160.18h-5.11c-.28,0-.5-.22-.5-.5s.22-.5.5-.5h5.11c.28,0,.5.22.5.5s-.22.5-.5.5ZM257.27,158.03h-11.77c-.28,0-.5-.22-.5-.5v-2.98c0-.28.22-.5.5-.5h11.77c.28,0,.5.22.5.5v2.98c0,.28-.22.5-.5.5ZM246,157.03h10.77v-1.98h-10.77v1.98ZM241.3,155.2h-5.11c-.28,0-.5-.22-.5-.5s.22-.5.5-.5h5.11c.28,0,.5.22.5.5s-.22.5-.5.5ZM241.3,150.1h-5.11c-.28,0-.5-.22-.5-.5s.22-.5.5-.5h5.11c.28,0,.5.22.5.5s-.22.5-.5.5ZM257.27,149.03h-11.77c-.28,0-.5-.22-.5-.5v-2.98c0-.28.22-.5.5-.5h11.77c.28,0,.5.22.5.5v2.98c0,.28-.22.5-.5.5ZM246,148.03h10.77v-1.98h-10.77v1.98ZM257.27,140.03h-11.77c-.28,0-.5-.22-.5-.5v-2.98c0-.28.22-.5.5-.5h11.77c.28,0,.5.22.5.5v2.98c0,.28-.22.5-.5.5ZM246,139.03h10.77v-1.98h-10.77v1.98ZM306.2,172.15c0-.28-.22-.5-.5-.5H20.16c-.28,0-.5.22-.5.5s.22.5.5.5h285.54c.28,0,.5-.22.5-.5Z" fill="#5c5c5c"/>
    </g>
  </g>
  <path d="M107.18,98.98c5.37-5.03,9.81-23.43,21.02-29.35,6.73-4.49,51.37-3.65,61.91-1.67,9.95,2.34,19.29,23.13,24.34,31.96,6.18,3.39,10.66,3.72,16.63,10.62,10.29,15.43,5.59,44.98,5.62,48.46-.55,5.74-143.87,4.41-149.79,1.74-2.36-9.66-4.85-41.22,2.7-49.1,5.55-8,17.57-12.67,17.57-12.67ZM214.45,99.92l-107.27-.95M88.53,161.1s-1.56,4.99.63,9.04c3.08,3,17.44,2.54,21.34.49,2.27-.32,1.63-8.24,1.63-8.24M209.85,162.25s-.73,6.17,1.03,7.97c3.4,3.02,18.83,1.82,21.31.56,2.89-2.52,1.05-10.38,1.05-10.38M111.12,93.16c-.42-1.59-1.02-3.24-3.72-3.62-1.65.08-11.41-1.25-13.27,1.07-1.39,1.87-.45,6.89,1.33,7.78,2.08,1.36,9.2,1.53,9.2,1.53M215.24,99.92s8.78-.17,10.86-1.53c1.78-.89,2.72-5.92,1.33-7.78-1.87-2.32-11.62-.99-13.27-1.07-2.7.37-3.31,2.03-3.72,3.62" fill="#fff"/>
  <path d="M131.44,78.57c1.82-1.52,16.66-1.69,17.83.24,4.08,2.65,5.63,17.38,6.16,19.42-3.16.4-30.4-.27-30.4-.27,0,0,2.22-17.86,6.41-19.39ZM166.86,97.96s27.25.67,30.4.27c-.53-2.04-2.08-16.77-6.16-19.42-1.17-1.93-16.01-1.76-17.83-.24-4.19,1.53-6.41,19.39-6.41,19.39Z" fill="#e5e5e5"/>
  <path d="M99.69,173.26c-4.77,0-9.48-.72-11.22-2.41l-.18-.24c-1.75-3.24-1.33-6.93-.97-8.73-.36-.08-.64-.15-.81-.23l-.44-.2-.12-.47c-2.34-9.59-4.97-41.6,2.9-49.97,3.22-4.61,8.42-8.1,12.4-10.29-2.24-.21-4.97-.63-6.28-1.46-1.4-.74-2.01-2.77-2.21-3.62-.42-1.78-.49-4.19.58-5.63,1.67-2.08,6.88-1.91,12.07-1.56.89.06,1.66.11,1.96.1h.09s.09,0,.09,0c2.01.28,3.09,1.2,3.71,2.2.33-.64.66-1.31,1.01-1.99,3.62-7.18,8.11-16.11,15.44-20,7.21-4.68,51.83-3.81,62.6-1.79,7.79,1.83,14.77,13.49,20.2,23.51.65-.89,1.71-1.68,3.53-1.93h.09s.09,0,.09,0c.3.01,1.07-.04,1.96-.1,5.19-.35,10.4-.51,12.05,1.53,1.1,1.47,1.03,3.89.6,5.66-.2.85-.82,2.88-2.21,3.62-1.5.93-5.29,1.34-8.13,1.52.42.19.84.38,1.25.56,3.95,1.75,7.68,3.41,12.12,8.54l.08.1c8.98,13.46,6.83,37.12,6.01,46.03-.13,1.41-.23,2.52-.23,2.98v.1c-.05.51-.37.95-.95,1.28-.48.28-1.27.54-2.33.77.43,2.37,1.12,8.02-1.57,10.37l-.2.14c-2.42,1.24-18.52,2.78-22.42-.7-1.62-1.67-1.6-5.58-1.46-7.67-16.41.62-36.01.73-47.64.73h-.71c-16.41,0-33.55-.22-47.21-.61.14,2.9,0,7.58-2.36,8.16-2.13,1.05-6.66,1.68-11.14,1.68ZM89.97,169.52c2.83,2.42,16.27,2.23,20.07.22l.15-.08.17-.02c.54-.24.99-3,.83-6.27-9.94-.3-17.82-.7-21.89-1.18-.3,1.45-.71,4.64.67,7.33ZM210.77,163.22c-.17,2.33-.04,5.41.83,6.3,2.84,2.53,17.45,1.54,20.02.41,1.62-1.59,1.24-6.04.83-8.4-4.77.78-12.66,1.31-21.68,1.69ZM87.75,159.96c4.45,1.01,34.39,2.07,73.35,2.07h.6c47.72-.01,71.38-1.67,74.01-3.34.02-.6.11-1.54.23-2.85.79-8.7,2.9-31.8-5.65-44.69-4.13-4.76-7.49-6.25-11.38-7.98-1.49-.66-3.04-1.35-4.72-2.25l-106.82-.94c-1.48.6-11.98,5.1-16.93,12.23l-.1.12c-6.82,7.12-5.15,36.41-2.58,47.63ZM215.18,99.18s.04.02.05.03v-.29c3.28-.06,8.98-.49,10.32-1.36l.1-.06c.36-.18.9-.98,1.22-2.32.38-1.6.28-3.27-.24-3.97-1.11-1.38-7.81-.93-10.33-.76-.95.06-1.66.11-2.08.1-1.62.25-2.21,1-2.58,2.08.29.53.57,1.06.84,1.58.97,1.83,1.9,3.57,2.7,4.98ZM100.33,90.24c-2.41,0-4.79.21-5.42,1-.5.67-.6,2.34-.22,3.94.32,1.33.85,2.14,1.22,2.32l.1.06c1.34.88,6.03,1.3,8.67,1.36v.05c.94-.44,1.63-.72,1.95-.85,1.13-1.11,2.25-2.9,3.42-5.08-.37-1.29-.89-2.22-2.71-2.49-.43.02-1.14-.04-2.08-.1-1.11-.07-3.03-.2-4.93-.2ZM109.35,98l103.38.91c-.63-1.15-1.31-2.43-2.02-3.76-.38-.72-.78-1.46-1.18-2.22l-.06-.02s.01-.04.02-.06c-5.13-9.57-12.35-22.21-19.61-23.91-10.95-2.05-54.96-2.57-61.12,1.53l-.09.05c-6.78,3.58-11.13,12.21-14.63,19.15-1.66,3.29-3.14,6.24-4.69,8.33ZM227.6,153.38h-9.34c-.55,0-1-.45-1-1s.45-1,1-1h9.34c.55,0,1,.45,1,1s-.45,1-1,1ZM105.6,153.38h-9.34c-.55,0-1-.45-1-1s.45-1,1-1h9.34c.55,0,1,.45,1,1s-.45,1-1,1ZM184.6,151.38h-49.96c-.55,0-1-.45-1-1s.45-1,1-1h49.96c.55,0,1,.45,1,1s-.45,1-1,1ZM190.7,142.38h-61.1c-.55,0-1-.45-1-1s.45-1,1-1h61.1c.55,0,1,.45,1,1s-.45,1-1,1ZM217.91,132.4l-18.11-.04-1.19-.35c-.74-.23-1.29-.58-1.65-1.06-.34-.3-.61-.62-.81-.98-1.06-2.39.41-4.98,4.43-8,2.98-2.04,6.05-3.68,9.16-4.92,4.18-1.67,7.29-1.97,9.48-.9,1.42.7,2.4,1.95,2.91,3.72l.03.17.6,5.67v.09c-.19,2.29-.96,4.04-2.3,5.21-.64.6-1.46,1.05-2.42,1.34l-.14.04ZM200.22,130.4h17.39c.6-.2,1.1-.48,1.52-.87.94-.82,1.48-2.08,1.63-3.79l-.57-5.39c-.35-1.18-.96-1.96-1.84-2.4-1.63-.8-4.28-.48-7.86.96-2.97,1.18-5.91,2.76-8.73,4.69-2.11,1.59-4.53,3.85-3.81,5.48.05.09.2.26.4.42l.19.21c.1.15.33.28.66.38l1.03.3ZM120.47,132.4l-18.11-.04c-.95-.28-1.77-.74-2.44-1.36-1.31-1.15-2.08-2.9-2.27-5.19v-.09s.63-5.84.63-5.84c.51-1.77,1.49-3.03,2.91-3.72,2.19-1.07,5.29-.78,9.48.9,3.1,1.23,6.17,2.88,9.12,4.89,4.06,3.04,5.53,5.63,4.51,7.94l-.04.09c-.2.35-.47.68-.81.98-.36.48-.91.83-1.64,1.06l-1.34.39ZM102.8,130.4h17.39l1.05-.31c.31-.1.54-.23.64-.38l.2-.22c.18-.15.32-.3.42-.46.65-1.63-1.73-3.87-3.86-5.46-2.79-1.9-5.73-3.48-8.69-4.66-3.58-1.44-6.23-1.76-7.86-.96-.89.43-1.49,1.22-1.84,2.4l-.57,5.39c.15,1.73.68,2.96,1.6,3.77.44.4.94.69,1.54.89ZM123.38,129.49h0,0Z" fill="#b7b7b7"/>
</svg>